
<svg version="1.0" xmlns="http://www.w3.org/2000/svg"
 width="900.000000pt" height="900.000000pt" viewBox="0 0 900.000000 900.000000"
 preserveAspectRatio="xMidYMid meet">
<g transform="translate(0.000000,900.000000) scale(0.100000,-0.100000)"
fill="#22c350" stroke="none">
<path d="M6810 6914 c-36 -18 -78 -33 -95 -34 -16 0 -50 -14 -74 -30 -49 -34
-63 -36 -80 -16 -21 26 -48 24 -92 -5 -38 -25 -46 -27 -64 -15 -11 7 -22 24
-23 37 -6 38 -18 42 -54 17 -42 -28 -140 -105 -217 -170 -31 -26 -60 -48 -64
-48 -33 0 -316 -297 -495 -520 -214 -265 -252 -313 -252 -319 0 -4 -14 -21
-30 -40 -39 -42 -150 -188 -150 -196 0 -4 -20 -30 -44 -58 -24 -29 -55 -71
-69 -94 -15 -23 -39 -56 -54 -75 -29 -33 -79 -103 -98 -136 -6 -9 -36 -52 -68
-94 -31 -42 -57 -80 -57 -83 0 -4 -13 -25 -28 -48 -69 -102 -92 -138 -92 -142
0 -2 -20 -33 -45 -69 -25 -37 -45 -70 -45 -75 0 -5 -10 -22 -23 -38 -13 -15
-33 -46 -44 -68 -104 -200 -146 -255 -194 -255 -24 0 -32 -6 -46 -37 -22 -52
-178 -368 -209 -422 -13 -25 -31 -52 -39 -61 -8 -9 -15 -21 -15 -27 0 -10 -41
-68 -74 -105 -8 -9 -22 -28 -32 -43 -25 -38 -98 -85 -132 -85 -16 0 -40 8 -53
19 -45 36 -140 273 -154 386 -3 28 -15 68 -25 90 -10 22 -24 55 -31 74 -14 37
-102 129 -137 142 -41 16 -86 10 -126 -17 -29 -20 -45 -25 -69 -19 -104 21
-101 22 -147 -42 -58 -78 -77 -93 -127 -93 -39 0 -45 -4 -68 -40 -31 -49 -56
-63 -98 -55 -55 11 -60 -4 -47 -147 6 -68 20 -157 30 -198 10 -41 23 -104 28
-140 5 -36 14 -78 20 -95 6 -16 16 -50 22 -75 11 -41 22 -76 59 -180 7 -19 22
-62 33 -95 11 -33 28 -76 38 -95 9 -19 20 -48 24 -65 4 -16 16 -48 26 -70 10
-22 32 -74 50 -115 35 -83 126 -268 168 -343 37 -67 60 -77 154 -70 73 6 79 4
112 -21 l35 -26 38 20 c44 23 62 25 98 8 23 -10 33 -9 71 11 26 14 52 21 65
18 51 -14 129 45 245 184 35 42 64 80 64 83 0 3 13 25 30 48 16 22 30 45 30
50 0 5 11 24 24 41 14 18 29 43 35 57 12 27 22 44 64 103 15 22 27 45 27 50 0
6 11 27 23 46 13 20 43 68 66 106 23 39 45 77 51 85 61 99 160 271 160 278 0
5 13 26 30 48 16 21 30 44 30 50 0 7 22 45 49 85 106 162 224 336 252 374 16
22 59 83 95 135 103 149 214 302 297 409 23 30 67 90 97 132 30 42 80 112 110
155 30 42 76 103 103 134 26 32 47 61 47 65 0 6 75 107 105 142 5 7 33 44 60
83 28 40 74 102 103 138 29 37 62 78 72 92 99 131 297 366 404 480 65 69 152
165 237 260 37 41 115 129 174 195 59 66 128 147 153 180 25 33 52 64 59 68 7
4 13 15 13 24 0 9 11 31 25 49 18 23 25 45 25 77 0 57 -23 78 -92 85 -29 3
-62 10 -73 17 -17 11 -30 8 -85 -21z"/>
</g>
</svg>