<?xml version="1.0" standalone="no"?>
<!DOCTYPE svg PUBLIC "-//W3C//DTD SVG 20010904//EN"
 "http://www.w3.org/TR/2001/REC-SVG-20010904/DTD/svg10.dtd">
<svg version="1.0" xmlns="http://www.w3.org/2000/svg"
 width="300.000000pt" height="300.000000pt" viewBox="0 0 300.000000 300.000000"
 preserveAspectRatio="xMidYMid meet">
<metadata>
Created by potrace 1.10, written by Peter Selinger 2001-2011
</metadata>
<g transform="translate(0.000000,300.000000) scale(0.100000,-0.100000)"
fill="#000000" stroke="none">
<path d="M2960 2940 c0 -5 5 -10 10 -10 6 0 10 5 10 10 0 6 -4 10 -10 10 -5 0
-10 -4 -10 -10z"/>
<path d="M1715 2891 c-64 -33 -131 -92 -206 -181 -43 -51 -119 -164 -119 -176
0 -2 -9 -17 -21 -33 l-21 -28 -56 13 c-70 17 -226 45 -267 48 -16 2 -106 17
-199 35 -93 17 -176 29 -183 27 -8 -3 -13 -22 -13 -51 0 -25 -4 -45 -9 -45 -5
0 -9 -34 -9 -75 -1 -41 -6 -92 -11 -112 -5 -21 -10 -60 -10 -86 0 -27 -5 -74
-10 -105 -6 -31 -17 -115 -26 -187 -9 -71 -22 -173 -30 -225 -8 -52 -17 -122
-20 -155 -3 -33 -8 -69 -11 -80 -2 -11 -13 -92 -24 -180 -37 -291 -40 -311
-70 -526 l-21 -147 20 -83 c23 -95 64 -282 83 -379 7 -36 17 -70 23 -76 7 -8
27 -6 75 8 36 11 130 37 210 59 80 22 195 54 255 71 102 28 249 68 320 88 17
4 138 38 270 75 132 37 254 71 270 75 250 66 324 86 419 116 61 19 153 44 204
56 50 12 92 26 92 31 0 5 -10 6 -22 3 -13 -4 -134 -11 -271 -16 -136 -5 -266
-11 -290 -14 -23 -3 -127 -8 -232 -11 -104 -3 -203 -8 -220 -10 -36 -5 -404
-24 -569 -29 -65 -2 -121 -8 -126 -13 -4 -4 -87 -115 -184 -245 -98 -131 -182
-238 -187 -238 -7 0 -14 64 -11 100 0 3 6 89 12 190 10 161 16 225 20 225 0 0
3 61 5 135 3 74 8 169 11 210 4 41 6 82 6 90 0 8 4 94 9 190 4 96 11 234 14
305 7 162 25 425 30 445 2 8 5 57 6 108 2 50 5 92 9 92 10 0 9 75 -2 81 -7 4
-6 14 2 28 6 12 10 45 10 74 -2 58 8 208 14 214 4 5 56 -16 336 -132 102 -42
206 -83 233 -92 26 -9 47 -21 47 -26 0 -6 -26 -64 -57 -129 -52 -106 -61 -118
-84 -118 -15 0 -39 -10 -54 -21 -22 -18 -26 -27 -21 -52 9 -42 34 -67 68 -67
44 0 68 31 68 88 0 39 9 65 46 133 26 46 55 100 66 120 l19 37 132 -55 c73
-30 173 -70 222 -89 50 -19 110 -43 135 -54 25 -10 110 -44 190 -75 80 -32
154 -61 165 -66 11 -4 45 -19 76 -32 63 -27 70 -45 32 -83 -20 -20 -23 -31
-18 -57 12 -58 64 -79 104 -42 31 30 13 115 -24 115 -8 0 -15 9 -15 19 0 17
22 11 183 -55 169 -69 207 -81 207 -69 0 2 -24 46 -53 97 -30 51 -56 100 -60
108 -4 8 -20 38 -37 65 -17 28 -38 65 -46 84 -9 19 -22 40 -30 48 -8 8 -14 20
-14 26 0 7 -10 24 -23 39 -18 23 -37 31 -101 43 -44 8 -83 18 -88 23 -4 4 -9
21 -12 37 -2 17 -6 37 -9 45 -3 8 -20 60 -38 115 -69 216 -166 357 -274 399
-11 5 -49 10 -85 13 -58 4 -72 1 -125 -26z m243 -44 c53 -33 92 -81 138 -169
35 -69 30 -70 -14 -2 -99 152 -232 201 -367 133 -67 -34 -173 -127 -229 -202
-28 -37 -52 -65 -53 -63 -10 10 90 141 161 211 102 102 147 125 241 125 63 0
77 -4 123 -33z m-13 -72 c55 -32 104 -89 148 -173 31 -60 93 -209 111 -269 8
-26 16 -26 -159 9 -55 11 -113 22 -130 24 -16 3 -66 12 -110 20 -44 9 -100 18
-125 21 -25 2 -70 11 -100 18 -30 8 -81 17 -112 21 -32 4 -58 11 -58 15 0 5
15 26 33 46 18 21 55 66 81 100 72 92 179 176 250 194 50 13 124 2 171 -26z
m-956 -270 c79 -11 234 -39 289 -51 42 -10 69 -11 80 -5 13 7 23 4 39 -11 17
-16 73 -29 275 -64 215 -37 398 -70 496 -90 13 -3 30 0 37 6 11 9 21 7 42 -8
15 -11 49 -23 76 -26 88 -9 93 -15 214 -231 62 -109 110 -201 108 -203 -2 -2
-30 8 -62 22 -97 42 -239 96 -255 96 -8 0 -18 4 -24 10 -9 9 -148 66 -727 297
-133 53 -246 93 -257 90 -11 -3 -26 3 -35 13 -9 10 -31 23 -48 30 -18 6 -52
20 -77 30 -25 11 -88 36 -140 56 -97 38 -140 62 -86 50 15 -4 40 -9 55 -11z
m163 -473 c13 -50 -39 -85 -62 -42 -13 24 -6 38 24 50 30 13 33 12 38 -8z
m1187 -201 c13 -24 -9 -57 -33 -48 -16 6 -22 47 -9 60 12 13 32 7 42 -12z
m-1794 -489 c-22 -459 -34 -670 -49 -872 l-12 -175 -13 60 c-7 33 -21 97 -32
141 -25 106 -24 170 5 377 13 95 32 231 41 302 9 72 25 191 35 265 10 74 22
167 27 205 15 139 14 18 -2 -303z m1795 -726 c0 -6 -68 -25 -259 -76 -80 -21
-177 -48 -216 -58 -293 -80 -772 -213 -983 -272 -138 -38 -259 -70 -267 -70
-9 0 24 51 82 128 53 70 123 162 156 205 l59 77 86 1 c48 0 114 2 147 4 55 4
315 18 855 45 113 6 223 12 245 14 79 6 95 6 95 2z"/>
<path d="M1002 1729 c-79 -40 -152 -168 -152 -268 0 -41 29 -94 59 -111 22
-11 98 -3 107 11 3 5 10 9 16 9 7 0 7 -4 1 -12 -20 -26 -37 -108 -25 -120 15
-15 14 -16 35 67 10 38 29 94 42 124 l25 54 -42 -7 c-42 -7 -78 -29 -66 -42 4
-3 16 0 28 6 33 18 35 5 4 -29 -15 -17 -43 -35 -63 -41 -30 -8 -39 -7 -55 10
-29 29 -25 114 8 180 14 29 26 57 26 64 0 20 64 81 99 95 26 12 34 11 56 -3
53 -35 18 -133 -62 -171 -46 -22 -54 -40 -24 -50 26 -8 81 29 112 74 34 49 34
135 0 162 -30 25 -76 24 -129 -2z"/>
<path d="M1695 1735 c-22 -8 -48 -17 -57 -21 -10 -3 -20 -14 -23 -23 -2 -9
-16 -28 -29 -42 -13 -15 -29 -44 -35 -65 -9 -32 -8 -45 8 -74 10 -19 29 -41
43 -48 23 -11 25 -16 18 -47 -4 -19 -5 -37 -1 -39 13 -9 29 9 35 41 4 18 18
43 32 55 25 25 33 64 11 55 -11 -4 -11 5 1 49 9 30 12 57 8 62 -14 13 -45 -38
-52 -83 -5 -34 -11 -45 -24 -45 -79 0 -46 140 43 186 87 46 152 8 155 -89 3
-70 -46 -166 -105 -210 -55 -39 -123 -44 -138 -9 -10 24 -28 25 -32 1 -5 -26
14 -41 61 -46 66 -8 125 17 178 77 63 70 63 70 77 131 17 72 8 139 -22 168
-30 27 -100 35 -152 16z"/>
<path d="M2510 1673 c-16 -46 -25 -56 -48 -58 -36 -3 -38 -15 -3 -15 28 0 32
-3 26 -17 -15 -41 -53 -198 -49 -205 10 -16 34 -7 51 19 l17 26 6 -24 c5 -19
12 -24 37 -23 l31 2 -15 -44 c-16 -46 -37 -71 -47 -55 -3 5 -1 22 4 37 12 30
8 39 -13 31 -19 -7 -28 -58 -14 -75 5 -7 24 -12 41 -10 24 2 35 11 52 43 23
43 79 243 70 252 -12 12 -36 -8 -36 -29 0 -30 -46 -128 -60 -128 -14 0 -12 29
6 83 16 47 14 77 -5 77 -6 0 -15 -18 -21 -40 -6 -23 -17 -49 -25 -58 -8 -9
-22 -26 -31 -37 -11 -14 -14 -15 -11 -4 3 9 15 53 27 97 20 73 25 82 46 82 12
0 26 5 29 10 4 6 -5 10 -20 10 -24 0 -25 2 -19 40 8 47 -11 56 -26 13z"/>
<path d="M1224 1574 c3 -9 6 -27 6 -40 0 -13 5 -24 10 -24 6 0 10 18 10 40 0
30 -4 40 -16 40 -11 0 -14 -5 -10 -16z"/>
<path d="M1360 1553 c-22 -8 -40 -34 -40 -59 0 -12 -6 -24 -14 -27 -15 -6 -28
-59 -20 -82 10 -24 70 -19 88 7 20 28 20 52 2 81 -17 25 -15 59 2 65 15 5 16
-24 2 -33 -6 -4 -8 -11 -4 -16 8 -13 24 -1 34 25 13 34 -11 53 -50 39z m-7
-134 c-7 -25 -22 -34 -36 -20 -7 7 -7 18 2 37 9 20 14 24 25 15 8 -7 12 -21 9
-32z"/>
<path d="M1874 1502 c-24 -83 -24 -125 1 -130 33 -6 37 -17 22 -54 -23 -55
-41 -60 -33 -10 3 23 3 42 -1 42 -22 -1 -34 -20 -31 -51 2 -27 8 -35 26 -37
44 -6 69 23 96 108 14 44 28 92 31 107 2 16 7 40 11 56 4 20 2 27 -9 27 -10 0
-21 -20 -32 -57 -18 -63 -40 -103 -55 -103 -14 0 -12 28 5 75 18 51 18 72 1
78 -11 4 -19 -9 -32 -51z"/>
<path d="M2082 1544 c-12 -8 -22 -10 -22 -5 0 6 -7 11 -15 11 -8 0 -19 -16
-24 -37 -6 -21 -17 -60 -25 -86 -12 -41 -12 -49 -1 -54 22 -8 35 6 35 35 1 47
49 136 66 120 2 -3 -3 -30 -11 -62 -8 -31 -15 -66 -15 -76 0 -28 33 -25 61 5
24 25 46 34 34 15 -23 -37 92 -51 119 -15 12 17 13 17 19 -4 4 -15 13 -21 34
-21 65 0 91 51 57 110 -17 28 -14 60 6 60 6 0 8 -10 4 -26 -5 -20 -3 -25 7
-22 17 6 24 47 11 60 -15 15 -60 1 -73 -23 -9 -18 -7 -30 11 -66 20 -40 21
-47 7 -60 -8 -9 -20 -12 -26 -8 -11 6 -9 21 6 63 3 7 -3 12 -16 12 -13 0 -27
-12 -37 -32 -25 -48 -27 -21 -5 45 22 63 24 58 -27 73 -24 7 -61 -19 -78 -54
-9 -20 -21 -41 -25 -46 -5 -6 -19 -24 -30 -39 -12 -15 -23 -26 -25 -24 -3 2 4
31 14 64 12 38 16 67 11 81 -10 26 -17 27 -47 6z m174 -41 c-22 -88 -28 -103
-43 -103 -13 0 -14 7 -10 37 4 21 11 39 17 41 5 2 10 12 10 21 0 20 8 31 23
31 5 0 6 -12 3 -27z"/>
<path d="M940 1112 c0 -6 4 -13 9 -17 10 -5 456 -29 766 -40 94 -3 226 -10
295 -15 69 -5 215 -12 325 -15 110 -4 208 -9 218 -11 13 -4 17 1 17 19 0 25 0
25 -127 31 -71 4 -202 11 -293 16 -91 5 -214 10 -275 11 -60 1 -144 5 -185 10
-127 14 -750 23 -750 11z"/>
<path d="M1047 1043 c-4 -3 -7 -17 -7 -29 0 -17 -4 -22 -15 -18 -8 4 -15 15
-15 25 0 10 -7 19 -15 19 -12 0 -15 -13 -15 -55 0 -42 3 -55 15 -55 8 0 15 9
15 19 0 31 28 34 32 3 6 -51 23 -27 26 36 3 57 -4 73 -21 55z"/>
<path d="M1340 970 c0 -33 4 -60 10 -60 6 0 10 17 10 38 0 20 3 47 6 60 5 16
2 22 -10 22 -13 0 -16 -11 -16 -60z"/>
<path d="M1091 983 c-12 -43 -2 -60 34 -60 22 0 25 4 25 36 0 66 -43 84 -59
24z m39 -3 c0 -5 -4 -10 -10 -10 -5 0 -10 5 -10 10 0 6 5 10 10 10 6 0 10 -4
10 -10z m0 -30 c0 -5 -4 -10 -10 -10 -5 0 -10 5 -10 10 0 6 5 10 10 10 6 0 10
-4 10 -10z"/>
<path d="M1728 1013 c-7 -17 -2 -108 6 -106 13 4 20 113 7 113 -5 0 -11 -3
-13 -7z"/>
<path d="M1175 1001 c-3 -2 -5 -29 -5 -60 1 -47 3 -53 13 -40 7 9 21 18 32 20
23 5 33 52 15 74 -10 13 -45 17 -55 6z m45 -35 c0 -8 -4 -17 -9 -21 -12 -7
-24 12 -16 25 9 15 25 12 25 -4z"/>
<path d="M1258 948 c-5 -61 -1 -70 16 -45 7 9 20 17 28 17 20 0 30 38 17 62
-5 10 -20 18 -33 18 -22 0 -24 -5 -28 -52z m38 -5 c-11 -11 -19 6 -11 24 8 17
8 17 12 0 3 -10 2 -21 -1 -24z"/>
<path d="M1380 954 c0 -24 5 -44 10 -44 6 0 10 14 10 30 0 17 5 30 10 30 6 0
10 -14 10 -31 0 -39 22 -34 26 6 4 36 -9 53 -41 53 -23 0 -25 -4 -25 -44z"/>
<path d="M1483 988 c-29 -37 -15 -84 23 -77 23 5 32 53 13 75 -14 17 -24 18
-36 2z m27 -48 c0 -5 -7 -10 -16 -10 -8 0 -12 5 -9 10 3 6 10 10 16 10 5 0 9
-4 9 -10z"/>
<path d="M1989 960 c-1 -22 -2 -46 -3 -52 -1 -7 6 -13 14 -13 9 0 14 7 12 18
-4 26 13 21 26 -9 7 -14 15 -23 20 -20 11 7 9 101 -3 101 -5 0 -9 -10 -7 -22
4 -34 -15 -28 -21 7 -10 46 -37 39 -38 -10z"/>
<path d="M1550 974 c0 -9 8 -23 18 -31 16 -13 15 -13 -7 -7 -17 4 -22 2 -19
-7 3 -8 17 -15 32 -17 26 -3 27 -2 24 35 -2 31 -7 39 -25 41 -16 2 -23 -2 -23
-14z"/>
<path d="M1623 975 c-3 -9 -3 -19 1 -22 3 -3 1 -12 -4 -18 -17 -20 14 -39 39
-25 27 14 27 30 1 37 -11 3 -20 9 -20 13 0 5 10 6 23 2 20 -5 21 -4 8 11 -17
21 -40 22 -48 2z m27 -45 c0 -5 -4 -10 -10 -10 -5 0 -10 5 -10 10 0 6 5 10 10
10 6 0 10 -4 10 -10z"/>
<path d="M1770 964 c0 -9 8 -23 18 -31 16 -13 15 -13 -7 -7 -17 4 -22 3 -19
-7 3 -8 16 -14 29 -14 21 0 24 5 26 38 2 33 0 37 -22 37 -17 0 -25 -6 -25 -16z"/>
<path d="M1876 964 c-4 -12 -1 -14 14 -9 16 5 20 2 20 -19 0 -14 -5 -26 -11
-26 -6 0 -9 7 -5 15 3 9 0 15 -9 15 -18 0 -20 -24 -2 -36 15 -11 47 -12 47 -1
1 75 0 77 -24 77 -13 0 -27 -7 -30 -16z"/>
<path d="M2296 964 c-3 -9 -6 -31 -6 -50 0 -34 1 -35 33 -32 31 3 32 5 34 51
2 46 2 47 -26 47 -17 0 -31 -6 -35 -16z m44 -8 c0 -11 -19 -15 -25 -6 -3 5 1
10 9 10 9 0 16 -2 16 -4z m0 -46 c0 -5 -7 -10 -15 -10 -8 0 -15 5 -15 10 0 6
7 10 15 10 8 0 15 -4 15 -10z"/>
<path d="M2092 958 c-18 -18 -15 -56 6 -67 27 -15 44 2 40 40 -3 36 -24 49
-46 27z m28 -18 c0 -5 -2 -10 -4 -10 -3 0 -8 5 -11 10 -3 6 -1 10 4 10 6 0 11
-4 11 -10z m7 -26 c-3 -3 -12 -4 -19 -1 -8 3 -5 6 6 6 11 1 17 -2 13 -5z"/>
<path d="M2155 935 c8 -52 22 -65 34 -34 7 16 10 19 10 7 2 -33 21 -28 36 8
18 45 18 44 0 44 -8 0 -15 -5 -15 -12 0 -6 -7 -3 -15 8 -13 17 -14 17 -15 2 0
-10 -3 -18 -6 -18 -4 0 -13 8 -21 18 -13 15 -14 13 -8 -23z"/>
<path d="M2385 948 c-3 -7 -6 -24 -7 -38 -3 -21 2 -26 25 -28 27 -3 28 -2 25
35 -2 27 -8 39 -21 41 -9 2 -19 -2 -22 -10z"/>
<path d="M2454 936 c-10 -26 1 -79 18 -90 23 -14 28 -7 35 53 6 50 5 51 -21
51 -15 0 -29 -6 -32 -14z m36 -21 c0 -8 -4 -15 -10 -15 -5 0 -10 7 -10 15 0 8
5 15 10 15 6 0 10 -7 10 -15z"/>
<path d="M937 814 c-15 -16 -6 -44 16 -49 12 -2 76 -4 142 -3 66 1 192 -1 280
-5 88 -4 336 -12 550 -18 215 -6 445 -12 513 -14 120 -3 122 -3 122 18 0 21
-4 22 -97 22 -54 1 -195 6 -313 13 -291 15 -480 21 -839 27 -167 2 -317 7
-335 10 -17 4 -35 3 -39 -1z"/>
</g>
</svg>