<?xml version="1.0" standalone="no"?>
<!DOCTYPE svg PUBLIC "-//W3C//DTD SVG 20010904//EN"
 "http://www.w3.org/TR/2001/REC-SVG-20010904/DTD/svg10.dtd">
<svg version="1.0" xmlns="http://www.w3.org/2000/svg"
 width="300.000000pt" height="300.000000pt" viewBox="0 0 300.000000 300.000000"
 preserveAspectRatio="xMidYMid meet">
<metadata>
Created by potrace 1.10, written by Peter Selinger 2001-2011
</metadata>
<g transform="translate(0.000000,300.000000) scale(0.100000,-0.100000)"
fill="#a0b0c066" stroke="none">
<path d="M1780 2853 c-69 -34 -172 -136 -238 -235 -29 -42 -52 -81 -52 -85 -1
-4 -10 -19 -21 -32 l-20 -24 -72 16 c-39 9 -108 21 -152 27 -44 6 -98 16 -120
21 -56 13 -265 49 -285 49 -18 0 -38 -86 -40 -177 0 -28 -5 -66 -10 -84 -5
-17 -7 -35 -4 -40 2 -4 0 -39 -7 -76 -6 -37 -13 -88 -15 -113 -2 -25 -9 -74
-14 -110 -5 -36 -14 -103 -20 -150 -6 -47 -15 -114 -21 -150 -5 -36 -11 -83
-14 -105 -9 -72 -51 -393 -82 -620 -9 -66 -16 -138 -17 -160 -1 -51 94 -486
110 -502 9 -9 22 -8 60 3 54 17 351 99 629 175 99 27 203 55 230 63 110 33
418 117 550 151 77 20 181 50 230 65 50 15 115 34 145 40 89 20 93 31 10 26
-41 -3 -142 -8 -225 -11 -82 -3 -222 -10 -310 -15 -88 -5 -232 -12 -320 -16
-88 -3 -162 -7 -165 -9 -3 -2 -93 -6 -200 -10 -249 -8 -281 -12 -297 -34 -7
-10 -38 -51 -69 -92 -31 -41 -99 -131 -151 -201 -52 -71 -99 -128 -103 -128
-12 0 -23 64 -16 87 3 10 11 93 16 183 6 91 12 194 15 230 5 67 14 249 19 380
6 129 17 363 21 420 2 30 6 107 10 170 3 63 10 156 15 205 6 50 11 120 12 158
1 37 5 67 8 67 11 0 8 64 -3 71 -5 4 -5 15 2 28 7 12 11 43 10 69 -3 102 3
184 16 188 13 5 69 -15 175 -64 36 -16 136 -58 223 -92 139 -55 157 -65 151
-82 -3 -11 -27 -63 -52 -116 -40 -82 -50 -97 -68 -94 -12 2 -34 -8 -49 -21
-22 -19 -27 -29 -21 -50 8 -34 32 -57 60 -57 40 0 58 23 62 76 2 28 14 71 29
99 28 52 86 157 91 164 3 4 94 -29 109 -39 6 -4 48 -22 95 -40 47 -17 99 -38
115 -45 67 -29 293 -119 340 -135 28 -10 75 -29 105 -43 30 -14 68 -29 83 -33
39 -9 52 -44 24 -65 -46 -37 -7 -129 47 -113 31 9 38 19 43 59 3 31 0 38 -27
53 -28 16 -44 50 -17 39 160 -67 341 -136 345 -132 6 6 -11 41 -56 113 -18 28
-36 60 -39 70 -4 9 -21 41 -40 69 -18 29 -39 68 -48 85 -29 63 -62 112 -81
118 -10 4 -41 11 -69 15 -65 9 -85 21 -85 48 0 32 -71 241 -105 307 -44 88
-95 150 -151 186 -71 45 -152 48 -234 7z m233 -37 c52 -38 59 -46 102 -121 46
-81 56 -114 14 -45 -41 66 -124 135 -181 151 -111 29 -228 -34 -376 -206 -40
-47 -41 -47 -17 -10 53 83 75 112 126 162 86 83 130 104 217 102 63 -2 77 -6
115 -33z m-28 -59 c61 -32 145 -145 185 -249 11 -29 25 -62 30 -73 10 -22 31
-98 27 -101 -3 -2 -76 10 -242 40 -77 14 -210 37 -295 51 -85 14 -163 29 -173
33 -15 6 -12 13 24 52 22 25 53 63 69 85 57 81 160 159 237 179 51 13 90 9
138 -17z m-889 -243 c27 -4 55 -8 64 -8 38 -4 171 -29 223 -42 39 -10 64 -11
75 -5 12 7 23 4 38 -10 12 -11 33 -22 45 -24 94 -13 117 -17 158 -26 25 -6 57
-12 71 -14 60 -6 126 -18 135 -23 5 -3 26 -7 45 -9 48 -4 73 -8 159 -28 41
-10 91 -15 112 -12 25 3 42 0 49 -8 6 -7 27 -16 48 -20 111 -19 103 -13 190
-168 44 -78 92 -164 108 -191 24 -44 25 -49 8 -42 -10 5 -41 16 -69 26 -27 10
-84 32 -125 49 -41 17 -83 31 -92 31 -9 0 -19 4 -22 8 -3 5 -61 30 -128 56
-68 26 -130 51 -139 56 -22 12 -309 127 -384 155 -33 12 -94 37 -135 55 -41
18 -86 33 -101 34 -15 1 -36 9 -46 19 -11 9 -26 17 -34 17 -8 0 -36 11 -64 25
-27 13 -54 25 -60 25 -15 0 -194 75 -202 85 -5 4 -1 6 8 2 9 -3 38 -9 65 -13z
m182 -451 c-5 -49 -53 -61 -64 -17 -8 29 7 44 44 44 20 0 23 -4 20 -27z m1082
-187 c0 -29 -28 -42 -47 -23 -11 11 -12 19 -2 40 10 21 15 24 30 16 11 -5 19
-20 19 -33z m-1620 -101 c0 -19 -4 -35 -8 -35 -4 0 -6 16 -4 35 2 19 6 35 8
35 2 0 4 -16 4 -35z m-4 -72 c-6 -31 -14 -182 -16 -313 -1 -47 -6 -141 -10
-210 -5 -69 -12 -181 -15 -250 -3 -69 -10 -186 -15 -260 -6 -74 -10 -144 -10
-154 0 -33 -8 -13 -24 59 -8 39 -22 102 -31 140 -10 43 -14 91 -10 125 8 77
24 195 36 260 6 30 12 80 14 110 3 43 37 298 59 445 2 11 4 32 5 48 0 15 6 27
12 27 6 0 8 -11 5 -27z m1598 -928 c-17 -7 -67 -22 -110 -33 -95 -24 -196 -51
-364 -98 -134 -37 -168 -46 -330 -93 -58 -16 -143 -39 -190 -51 -47 -12 -98
-25 -115 -31 -16 -5 -120 -34 -230 -65 -110 -30 -206 -57 -212 -59 -20 -7 -15
10 12 39 14 15 25 29 25 32 0 8 222 299 234 306 6 3 88 9 181 13 202 8 272 11
510 24 99 6 241 13 315 16 74 4 136 8 138 9 1 2 39 3 85 4 77 1 80 0 51 -13z"/>
<path d="M1307 1789 c-65 -31 -121 -59 -124 -62 -6 -7 29 -68 37 -64 3 1 58
28 123 59 64 31 117 59 117 62 0 3 -8 18 -17 34 l-18 29 -118 -58z m113 12 c0
-10 -173 -101 -191 -101 -37 0 60 62 126 80 6 1 19 9 30 16 23 16 35 18 35 5z"/>
<path d="M2012 1754 c-12 -15 -21 -27 -20 -29 2 -1 52 -39 112 -84 l108 -82
24 22 c13 12 24 26 24 30 0 7 -202 161 -218 166 -4 2 -17 -9 -30 -23z m153
-98 c28 -22 52 -41 54 -43 2 -2 2 -6 -2 -9 -12 -13 -190 123 -181 138 6 9 37
-12 129 -86z"/>
<path d="M1314 1614 c-30 -29 -27 -67 8 -96 48 -42 137 2 124 60 -15 62 -87
82 -132 36z m100 -26 c16 -26 -4 -52 -42 -56 -26 -3 -34 2 -43 22 -9 20 -9 29
1 41 17 21 69 16 84 -7z"/>
<path d="M1977 1552 c-23 -26 -21 -75 3 -97 25 -23 84 -25 104 -4 47 47 14
119 -53 119 -24 0 -44 -7 -54 -18z m93 -27 c18 -21 8 -48 -22 -59 -19 -7 -31
-6 -42 4 -16 13 -22 51 -9 63 12 12 60 7 73 -8z"/>
<path d="M1282 1126 c-2 -54 14 -69 133 -126 106 -51 185 -70 291 -70 143 0
316 50 328 93 13 49 0 88 -18 58 -3 -5 -45 -23 -94 -41 -189 -69 -371 -47
-545 64 -29 19 -59 41 -66 50 -21 25 -28 19 -29 -28z m58 -31 c7 -8 16 -15 20
-15 4 0 39 -18 79 -39 39 -22 71 -38 71 -36 0 2 24 -4 53 -12 108 -31 267 -19
385 28 56 23 77 21 40 -3 -88 -57 -293 -78 -427 -44 -99 25 -251 102 -251 127
0 14 16 11 30 -6z"/>
</g>
</svg>