<?xml version="1.0" standalone="no"?>
<!DOCTYPE svg PUBLIC "-//W3C//DTD SVG 20010904//EN"
 "http://www.w3.org/TR/2001/REC-SVG-20010904/DTD/svg10.dtd">
<svg version="1.0" xmlns="http://www.w3.org/2000/svg"
 width="300.000000pt" height="81.000000pt" viewBox="0 0 300.000000 81.000000"
 preserveAspectRatio="xMidYMid meet">
<metadata>
Created by potrace 1.10, written by Peter Selinger 2001-2011
</metadata>
<g transform="translate(0.000000,81.000000) scale(0.100000,-0.100000)"
fill="#000000" stroke="none">
<path d="M471 757 c-40 -13 -161 -129 -180 -172 -7 -16 -18 -39 -24 -50 -19
-36 -37 -120 -37 -173 0 -57 27 -128 62 -159 29 -26 124 -23 173 5 l36 22 -12
-22 c-26 -48 -49 -150 -38 -170 16 -30 33 -15 41 36 10 70 46 182 79 248 l29
58 -25 0 c-49 0 -116 -22 -126 -42 -15 -28 -6 -32 36 -18 20 7 39 10 41 7 3
-3 -17 -27 -45 -55 -37 -37 -59 -51 -88 -55 -71 -9 -113 48 -99 138 4 22 8 54
10 72 4 33 45 125 59 131 4 2 7 12 7 22 0 9 7 23 15 30 8 7 15 18 15 25 0 17
78 87 90 80 4 -3 10 0 12 5 2 6 19 13 38 16 26 4 42 1 62 -15 24 -19 26 -26
23 -81 -2 -54 -6 -66 -42 -108 -28 -34 -53 -52 -88 -63 -27 -10 -51 -21 -53
-27 -4 -12 25 -42 42 -42 29 0 96 42 123 77 57 74 63 90 63 155 0 63 -13 97
-48 126 -19 14 -104 14 -151 -1z m-142 -189 c-26 -51 -29 -56 -29 -37 0 15 36
79 45 79 3 0 -4 -19 -16 -42z m-37 -85 c-3 -16 -7 -22 -10 -15 -4 13 4 42 11
42 2 0 2 -12 -1 -27z"/>
<path d="M1470 760 c-44 -11 -130 -52 -130 -64 0 -7 -28 -44 -74 -98 -23 -26
-38 -96 -31 -139 8 -44 59 -103 82 -95 8 3 12 2 9 -3 -3 -5 1 -12 10 -15 9 -3
13 -13 10 -23 -3 -10 -7 -35 -10 -56 -6 -35 -4 -38 14 -35 12 2 21 6 20 11 0
4 6 20 13 35 8 15 12 33 10 40 -3 6 0 12 6 12 6 0 11 6 11 13 0 6 14 23 30 36
21 16 30 32 30 53 0 24 -3 28 -19 23 -18 -5 -18 -3 -6 32 21 62 28 123 15 123
-26 0 -48 -22 -54 -54 -24 -127 -45 -155 -93 -121 -21 15 -37 82 -21 91 5 3 6
14 3 24 -7 22 63 113 107 140 55 33 120 44 161 26 59 -24 79 -66 75 -161 -3
-68 -8 -91 -37 -149 -18 -38 -43 -80 -55 -94 -56 -65 -164 -111 -228 -97 -22
5 -30 14 -35 36 -6 32 -20 34 -37 6 -13 -21 1 -47 35 -64 42 -22 139 -16 195
12 87 43 203 171 212 235 2 13 6 27 10 30 9 7 13 43 11 115 -2 91 -4 114 -7
110 -2 -2 -16 9 -30 24 -45 47 -116 61 -202 41z m202 -99 c8 -23 11 -59 8 -96
l-5 -60 -6 72 c-4 48 -13 83 -29 108 -22 35 -22 36 -2 24 11 -7 26 -29 34 -48z
m-247 -237 c0 -5 -12 -25 -27 -44 -27 -34 -28 -34 -42 -15 -13 18 -13 20 7 25
12 3 26 16 32 28 9 21 30 25 30 6z"/>
<path d="M2631 681 c-6 -10 -12 -29 -15 -42 -9 -47 -17 -57 -57 -63 -48 -8
-52 -25 -4 -22 19 2 35 -1 35 -6 0 -13 -29 -128 -37 -148 -3 -8 -7 -22 -8 -30
-1 -8 -9 -39 -18 -69 -13 -40 -14 -58 -6 -68 18 -21 36 -15 68 24 25 31 31 34
31 18 1 -49 36 -64 92 -40 16 7 7 -24 -39 -132 -8 -18 -33 -24 -39 -8 -3 8 0
30 6 50 14 43 8 52 -25 37 -21 -10 -25 -18 -25 -56 0 -54 21 -70 76 -60 25 5
42 17 59 43 14 19 25 41 25 48 0 8 4 21 9 31 5 9 15 37 21 62 7 25 16 56 21
70 5 14 15 56 24 94 12 56 13 71 3 78 -27 17 -38 -4 -63 -116 -8 -34 -46 -104
-60 -110 -21 -8 -28 27 -14 76 16 55 15 50 23 69 4 8 8 29 9 45 2 23 -2 30
-19 32 -19 3 -24 -5 -34 -49 -7 -28 -20 -59 -29 -68 -9 -9 -28 -34 -41 -56
-13 -21 -25 -34 -27 -28 -2 5 12 62 32 126 19 64 35 123 35 132 0 9 6 12 15 9
24 -9 65 5 65 22 0 9 -8 14 -17 13 -47 -4 -52 -1 -42 33 5 18 9 40 9 49 0 25
-28 31 -39 10z m22 -369 c-3 -12 -9 -19 -14 -16 -5 3 -4 14 2 25 13 26 20 21
12 -9z m99 -54 c-7 -7 -12 -8 -12 -2 0 14 12 26 19 19 2 -3 -1 -11 -7 -17z"/>
<path d="M779 543 c-13 -3 -15 -14 -11 -56 5 -59 16 -78 29 -51 12 25 17 101
6 106 -4 3 -15 3 -24 1z"/>
<path d="M1846 491 c-3 -5 -13 -39 -21 -77 -17 -72 -35 -112 -60 -138 -41 -41
-43 7 -5 128 18 56 19 70 8 77 -22 15 -43 5 -46 -21 -5 -42 -24 -80 -36 -73
-6 4 -5 0 2 -9 9 -11 10 -18 2 -23 -6 -3 -8 -11 -5 -16 4 -5 3 -15 -2 -21 -27
-44 -7 -98 38 -98 16 0 32 -6 35 -14 6 -16 -43 -126 -56 -126 -18 0 -20 20 -9
65 6 25 9 48 6 51 -3 3 -17 -2 -31 -11 -21 -14 -26 -25 -26 -59 0 -23 5 -47
12 -54 27 -27 96 -6 124 36 18 27 63 152 69 191 2 13 8 35 14 50 5 14 15 50
21 80 8 43 8 56 -2 63 -17 10 -26 10 -32 -1z m-49 -252 c-12 -29 -16 -31 -22
-16 -5 11 -1 25 10 37 25 27 29 19 12 -21z"/>
<path d="M2423 480 c-47 -28 -50 -57 -13 -130 30 -59 30 -63 14 -81 -9 -10
-23 -19 -30 -19 -16 0 -36 34 -27 44 4 4 8 12 9 19 2 7 6 22 10 34 6 20 3 23
-21 21 -16 -2 -33 -12 -41 -25 -40 -66 -46 -74 -50 -70 -2 2 3 20 11 40 8 20
15 38 14 39 0 2 2 10 4 18 19 62 26 94 22 100 -9 14 -81 19 -112 8 -18 -7 -35
-20 -39 -30 -3 -10 -9 -18 -14 -18 -4 0 -11 -16 -14 -35 -4 -21 -13 -35 -21
-35 -8 0 -15 -5 -15 -10 0 -18 -52 -90 -65 -90 -9 0 -5 26 15 88 28 89 27 117
-4 137 -12 7 -24 5 -47 -8 -29 -16 -32 -16 -44 -1 -18 25 -32 10 -44 -47 -6
-28 -15 -58 -21 -68 -10 -19 -19 -56 -27 -108 -4 -28 -2 -33 16 -33 24 0 36
20 44 73 7 46 55 147 73 154 20 8 37 -7 25 -21 -6 -7 -13 -28 -16 -47 -7 -47
-22 -110 -29 -116 -11 -11 15 -43 35 -43 12 0 37 16 56 35 33 33 62 48 48 25
-10 -16 23 -60 43 -60 10 0 27 7 39 15 19 13 22 13 27 0 8 -22 21 -18 54 15
35 35 42 37 42 12 0 -50 75 -58 121 -13 34 35 36 56 8 121 -22 52 -22 91 0 98
11 4 13 -4 7 -37 -7 -44 1 -51 27 -23 21 23 22 56 1 76 -20 21 -32 20 -71 -4z
m-161 -51 c-1 -13 -12 -55 -23 -92 -20 -66 -40 -90 -60 -70 -14 14 11 113 29
113 9 0 12 6 8 16 -8 20 21 67 37 61 7 -2 11 -15 9 -28z m-116 -126 c-11 -11
-19 6 -11 24 8 17 8 17 12 0 3 -10 2 -21 -1 -24z"/>
<path d="M935 465 c-17 -16 -25 -35 -25 -59 0 -26 -5 -36 -20 -41 -25 -8 -46
-79 -33 -115 7 -21 16 -26 52 -28 52 -4 77 15 92 70 9 34 7 44 -14 81 -24 43
-24 86 1 95 15 5 17 -44 2 -53 -11 -7 -4 -25 10 -25 16 0 41 32 36 46 -3 8 0
14 6 14 6 0 3 9 -7 20 -25 28 -70 26 -100 -5z m18 -152 c-7 -3 -13 -18 -13
-34 0 -19 -5 -29 -15 -29 -26 0 -34 41 -17 78 l16 33 20 -22 c15 -15 17 -23 9
-26z"/>
</g>
</svg>
